<svg width="6" height="5" viewBox="0 0 6 5" fill="none" xmlns="http://www.w3.org/2000/svg">
<path d="M2.03033 0.71967C1.73744 0.426777 1.26256 0.426777 0.96967 0.71967C0.676777 1.01256 0.676777 1.48744 0.96967 1.78033L2.03033 0.71967ZM3.96967 4.78033C4.26256 5.07322 4.73744 5.07322 5.03033 4.78033C5.32322 4.48744 5.32322 4.01256 5.03033 3.71967L3.96967 4.78033ZM5.03033 1.78033C5.32322 1.48744 5.32322 1.01256 5.03033 0.71967C4.73744 0.426777 4.26256 0.426777 3.96967 0.71967L5.03033 1.78033ZM0.96967 3.71967C0.676777 4.01256 0.676777 4.48744 0.96967 4.78033C1.26256 5.07322 1.73744 5.07322 2.03033 4.78033L0.96967 3.71967ZM0.96967 1.78033L3.96967 4.78033L5.03033 3.71967L2.03033 0.71967L0.96967 1.78033ZM3.96967 0.71967L0.96967 3.71967L2.03033 4.78033L5.03033 1.78033L3.96967 0.71967Z" fill="#C1C1C1"/>
<path d="M2.03033 0.71967C1.73744 0.426777 1.26256 0.426777 0.96967 0.71967C0.676777 1.01256 0.676777 1.48744 0.96967 1.78033L2.03033 0.71967ZM3.96967 4.78033C4.26256 5.07322 4.73744 5.07322 5.03033 4.78033C5.32322 4.48744 5.32322 4.01256 5.03033 3.71967L3.96967 4.78033ZM5.03033 1.78033C5.32322 1.48744 5.32322 1.01256 5.03033 0.71967C4.73744 0.426777 4.26256 0.426777 3.96967 0.71967L5.03033 1.78033ZM0.96967 3.71967C0.676777 4.01256 0.676777 4.48744 0.96967 4.78033C1.26256 5.07322 1.73744 5.07322 2.03033 4.78033L0.96967 3.71967ZM0.96967 1.78033L3.96967 4.78033L5.03033 3.71967L2.03033 0.71967L0.96967 1.78033ZM3.96967 0.71967L0.96967 3.71967L2.03033 4.78033L5.03033 1.78033L3.96967 0.71967Z" fill="white" fill-opacity="0.2"/>
</svg>
